<mxfile host="app.diagrams.net" agent="Mozilla/5.0 (Windows NT 10.0; Win64; x64) AppleWebKit/537.36 (KHTML, like Gecko) Chrome/135.0.0.0 Safari/537.36 Edg/135.0.0.0" version="27.0.3">
  <diagram name="第 1 页" id="EpccfH3Tidf-vXw25gn9">
    <mxGraphModel dx="1379" dy="760" grid="0" gridSize="10" guides="1" tooltips="1" connect="1" arrows="1" fold="1" page="1" pageScale="1" pageWidth="1200" pageHeight="1600" math="0" shadow="0">
      <root>
        <mxCell id="0" />
        <mxCell id="1" parent="0" />
        <mxCell id="mnLrqJY_td_YgX6tUmR0-18" style="edgeStyle=none;shape=connector;rounded=0;orthogonalLoop=1;jettySize=auto;html=1;exitX=0.75;exitY=0;exitDx=0;exitDy=0;strokeColor=default;align=center;verticalAlign=middle;fontFamily=Helvetica;fontSize=11;fontColor=default;labelBackgroundColor=default;startFill=0;endArrow=none;" edge="1" parent="1" source="mnLrqJY_td_YgX6tUmR0-1" target="mnLrqJY_td_YgX6tUmR0-6">
          <mxGeometry relative="1" as="geometry" />
        </mxCell>
        <mxCell id="mnLrqJY_td_YgX6tUmR0-20" style="edgeStyle=none;shape=connector;rounded=0;orthogonalLoop=1;jettySize=auto;html=1;exitX=1;exitY=0.75;exitDx=0;exitDy=0;entryX=0;entryY=0.5;entryDx=0;entryDy=0;strokeColor=default;align=center;verticalAlign=middle;fontFamily=Helvetica;fontSize=11;fontColor=default;labelBackgroundColor=default;startFill=0;endArrow=none;" edge="1" parent="1" source="mnLrqJY_td_YgX6tUmR0-1" target="mnLrqJY_td_YgX6tUmR0-9">
          <mxGeometry relative="1" as="geometry" />
        </mxCell>
        <mxCell id="mnLrqJY_td_YgX6tUmR0-22" style="edgeStyle=none;shape=connector;rounded=0;orthogonalLoop=1;jettySize=auto;html=1;exitX=0.75;exitY=1;exitDx=0;exitDy=0;strokeColor=default;align=center;verticalAlign=middle;fontFamily=Helvetica;fontSize=11;fontColor=default;labelBackgroundColor=default;startFill=0;endArrow=none;" edge="1" parent="1" source="mnLrqJY_td_YgX6tUmR0-1" target="mnLrqJY_td_YgX6tUmR0-14">
          <mxGeometry relative="1" as="geometry" />
        </mxCell>
        <mxCell id="mnLrqJY_td_YgX6tUmR0-24" style="edgeStyle=none;shape=connector;rounded=0;orthogonalLoop=1;jettySize=auto;html=1;exitX=0.25;exitY=1;exitDx=0;exitDy=0;strokeColor=default;align=center;verticalAlign=middle;fontFamily=Helvetica;fontSize=11;fontColor=default;labelBackgroundColor=default;startFill=0;endArrow=none;" edge="1" parent="1" source="mnLrqJY_td_YgX6tUmR0-1" target="mnLrqJY_td_YgX6tUmR0-5">
          <mxGeometry relative="1" as="geometry" />
        </mxCell>
        <mxCell id="mnLrqJY_td_YgX6tUmR0-25" style="edgeStyle=none;shape=connector;rounded=0;orthogonalLoop=1;jettySize=auto;html=1;exitX=0;exitY=1;exitDx=0;exitDy=0;entryX=1;entryY=0.5;entryDx=0;entryDy=0;strokeColor=default;align=center;verticalAlign=middle;fontFamily=Helvetica;fontSize=11;fontColor=default;labelBackgroundColor=default;startFill=0;endArrow=none;" edge="1" parent="1" source="mnLrqJY_td_YgX6tUmR0-1" target="mnLrqJY_td_YgX6tUmR0-10">
          <mxGeometry relative="1" as="geometry" />
        </mxCell>
        <mxCell id="mnLrqJY_td_YgX6tUmR0-27" style="edgeStyle=none;shape=connector;rounded=0;orthogonalLoop=1;jettySize=auto;html=1;exitX=0;exitY=0;exitDx=0;exitDy=0;strokeColor=default;align=center;verticalAlign=middle;fontFamily=Helvetica;fontSize=11;fontColor=default;labelBackgroundColor=default;startFill=0;endArrow=none;" edge="1" parent="1" source="mnLrqJY_td_YgX6tUmR0-1" target="mnLrqJY_td_YgX6tUmR0-2">
          <mxGeometry relative="1" as="geometry" />
        </mxCell>
        <mxCell id="mnLrqJY_td_YgX6tUmR0-1" value="活动" style="rounded=0;whiteSpace=wrap;html=1;" vertex="1" parent="1">
          <mxGeometry x="216" y="170" width="110" height="50" as="geometry" />
        </mxCell>
        <mxCell id="mnLrqJY_td_YgX6tUmR0-2" value="活动发布人id" style="ellipse;whiteSpace=wrap;html=1;" vertex="1" parent="1">
          <mxGeometry x="70" y="50" width="90" height="60" as="geometry" />
        </mxCell>
        <mxCell id="mnLrqJY_td_YgX6tUmR0-16" style="rounded=0;orthogonalLoop=1;jettySize=auto;html=1;exitX=0.5;exitY=1;exitDx=0;exitDy=0;entryX=0.5;entryY=0;entryDx=0;entryDy=0;endArrow=none;startFill=0;" edge="1" parent="1" source="mnLrqJY_td_YgX6tUmR0-3" target="mnLrqJY_td_YgX6tUmR0-1">
          <mxGeometry relative="1" as="geometry" />
        </mxCell>
        <mxCell id="mnLrqJY_td_YgX6tUmR0-3" value="活动标题" style="ellipse;whiteSpace=wrap;html=1;" vertex="1" parent="1">
          <mxGeometry x="180" y="20" width="90" height="60" as="geometry" />
        </mxCell>
        <mxCell id="mnLrqJY_td_YgX6tUmR0-4" value="结束时间" style="ellipse;whiteSpace=wrap;html=1;" vertex="1" parent="1">
          <mxGeometry x="417" y="270" width="90" height="60" as="geometry" />
        </mxCell>
        <mxCell id="mnLrqJY_td_YgX6tUmR0-5" value="报名最大人数" style="ellipse;whiteSpace=wrap;html=1;" vertex="1" parent="1">
          <mxGeometry x="46" y="256" width="90" height="60" as="geometry" />
        </mxCell>
        <mxCell id="mnLrqJY_td_YgX6tUmR0-6" value="封面图url" style="ellipse;whiteSpace=wrap;html=1;" vertex="1" parent="1">
          <mxGeometry x="382" y="58" width="90" height="60" as="geometry" />
        </mxCell>
        <mxCell id="mnLrqJY_td_YgX6tUmR0-7" value="活动介绍" style="ellipse;whiteSpace=wrap;html=1;" vertex="1" parent="1">
          <mxGeometry x="290" y="30" width="90" height="60" as="geometry" />
        </mxCell>
        <mxCell id="mnLrqJY_td_YgX6tUmR0-8" value="活动id" style="ellipse;whiteSpace=wrap;html=1;" vertex="1" parent="1">
          <mxGeometry x="10" y="110" width="90" height="60" as="geometry" />
        </mxCell>
        <mxCell id="mnLrqJY_td_YgX6tUmR0-9" value="开始时间" style="ellipse;whiteSpace=wrap;html=1;" vertex="1" parent="1">
          <mxGeometry x="474" y="173" width="90" height="60" as="geometry" />
        </mxCell>
        <mxCell id="mnLrqJY_td_YgX6tUmR0-10" value="已经报名人数" style="ellipse;whiteSpace=wrap;html=1;" vertex="1" parent="1">
          <mxGeometry x="20" y="190" width="90" height="60" as="geometry" />
        </mxCell>
        <mxCell id="mnLrqJY_td_YgX6tUmR0-11" value="活动地点" style="ellipse;whiteSpace=wrap;html=1;" vertex="1" parent="1">
          <mxGeometry x="456" y="110" width="90" height="60" as="geometry" />
        </mxCell>
        <mxCell id="mnLrqJY_td_YgX6tUmR0-12" value="创建时间" style="ellipse;whiteSpace=wrap;html=1;" vertex="1" parent="1">
          <mxGeometry x="155" y="312" width="90" height="60" as="geometry" />
        </mxCell>
        <mxCell id="mnLrqJY_td_YgX6tUmR0-14" value="更新时间" style="ellipse;whiteSpace=wrap;html=1;" vertex="1" parent="1">
          <mxGeometry x="254" y="319" width="90" height="60" as="geometry" />
        </mxCell>
        <mxCell id="mnLrqJY_td_YgX6tUmR0-17" style="edgeStyle=none;shape=connector;rounded=0;orthogonalLoop=1;jettySize=auto;html=1;exitX=0.5;exitY=0;exitDx=0;exitDy=0;entryX=0.356;entryY=0.933;entryDx=0;entryDy=0;entryPerimeter=0;strokeColor=default;align=center;verticalAlign=middle;fontFamily=Helvetica;fontSize=11;fontColor=default;labelBackgroundColor=default;startFill=0;endArrow=none;" edge="1" parent="1" source="mnLrqJY_td_YgX6tUmR0-1" target="mnLrqJY_td_YgX6tUmR0-7">
          <mxGeometry relative="1" as="geometry" />
        </mxCell>
        <mxCell id="mnLrqJY_td_YgX6tUmR0-19" style="edgeStyle=none;shape=connector;rounded=0;orthogonalLoop=1;jettySize=auto;html=1;exitX=1;exitY=0.25;exitDx=0;exitDy=0;entryX=0.049;entryY=0.673;entryDx=0;entryDy=0;entryPerimeter=0;strokeColor=default;align=center;verticalAlign=middle;fontFamily=Helvetica;fontSize=11;fontColor=default;labelBackgroundColor=default;startFill=0;endArrow=none;" edge="1" parent="1" source="mnLrqJY_td_YgX6tUmR0-1" target="mnLrqJY_td_YgX6tUmR0-11">
          <mxGeometry relative="1" as="geometry" />
        </mxCell>
        <mxCell id="mnLrqJY_td_YgX6tUmR0-21" style="edgeStyle=none;shape=connector;rounded=0;orthogonalLoop=1;jettySize=auto;html=1;exitX=1;exitY=1;exitDx=0;exitDy=0;entryX=0.076;entryY=0.34;entryDx=0;entryDy=0;entryPerimeter=0;strokeColor=default;align=center;verticalAlign=middle;fontFamily=Helvetica;fontSize=11;fontColor=default;labelBackgroundColor=default;startFill=0;endArrow=none;" edge="1" parent="1" source="mnLrqJY_td_YgX6tUmR0-1" target="mnLrqJY_td_YgX6tUmR0-4">
          <mxGeometry relative="1" as="geometry" />
        </mxCell>
        <mxCell id="mnLrqJY_td_YgX6tUmR0-23" style="edgeStyle=none;shape=connector;rounded=0;orthogonalLoop=1;jettySize=auto;html=1;exitX=0.5;exitY=1;exitDx=0;exitDy=0;entryX=0.698;entryY=0.027;entryDx=0;entryDy=0;entryPerimeter=0;strokeColor=default;align=center;verticalAlign=middle;fontFamily=Helvetica;fontSize=11;fontColor=default;labelBackgroundColor=default;startFill=0;endArrow=none;" edge="1" parent="1" source="mnLrqJY_td_YgX6tUmR0-1" target="mnLrqJY_td_YgX6tUmR0-12">
          <mxGeometry relative="1" as="geometry" />
        </mxCell>
        <mxCell id="mnLrqJY_td_YgX6tUmR0-26" style="edgeStyle=none;shape=connector;rounded=0;orthogonalLoop=1;jettySize=auto;html=1;exitX=0;exitY=0.5;exitDx=0;exitDy=0;entryX=0.987;entryY=0.693;entryDx=0;entryDy=0;entryPerimeter=0;strokeColor=default;align=center;verticalAlign=middle;fontFamily=Helvetica;fontSize=11;fontColor=default;labelBackgroundColor=default;startFill=0;endArrow=none;" edge="1" parent="1" source="mnLrqJY_td_YgX6tUmR0-1" target="mnLrqJY_td_YgX6tUmR0-8">
          <mxGeometry relative="1" as="geometry" />
        </mxCell>
        <mxCell id="mnLrqJY_td_YgX6tUmR0-92" style="edgeStyle=none;shape=connector;rounded=0;orthogonalLoop=1;jettySize=auto;html=1;exitX=0.5;exitY=0;exitDx=0;exitDy=0;entryX=1;entryY=1;entryDx=0;entryDy=0;strokeColor=default;align=center;verticalAlign=middle;fontFamily=Helvetica;fontSize=11;fontColor=default;labelBackgroundColor=default;startFill=0;endArrow=none;" edge="1" parent="1" source="mnLrqJY_td_YgX6tUmR0-80" target="mnLrqJY_td_YgX6tUmR0-81">
          <mxGeometry relative="1" as="geometry" />
        </mxCell>
        <mxCell id="mnLrqJY_td_YgX6tUmR0-95" style="edgeStyle=none;shape=connector;rounded=0;orthogonalLoop=1;jettySize=auto;html=1;exitX=0;exitY=0.5;exitDx=0;exitDy=0;entryX=1;entryY=0.5;entryDx=0;entryDy=0;strokeColor=default;align=center;verticalAlign=middle;fontFamily=Helvetica;fontSize=11;fontColor=default;labelBackgroundColor=default;startFill=0;endArrow=none;" edge="1" parent="1" source="mnLrqJY_td_YgX6tUmR0-80" target="mnLrqJY_td_YgX6tUmR0-89">
          <mxGeometry relative="1" as="geometry" />
        </mxCell>
        <mxCell id="mnLrqJY_td_YgX6tUmR0-96" style="edgeStyle=none;shape=connector;rounded=0;orthogonalLoop=1;jettySize=auto;html=1;exitX=0.5;exitY=1;exitDx=0;exitDy=0;entryX=0.5;entryY=0;entryDx=0;entryDy=0;strokeColor=default;align=center;verticalAlign=middle;fontFamily=Helvetica;fontSize=11;fontColor=default;labelBackgroundColor=default;startFill=0;endArrow=none;" edge="1" parent="1" source="mnLrqJY_td_YgX6tUmR0-80" target="mnLrqJY_td_YgX6tUmR0-87">
          <mxGeometry relative="1" as="geometry" />
        </mxCell>
        <mxCell id="mnLrqJY_td_YgX6tUmR0-97" style="edgeStyle=none;shape=connector;rounded=0;orthogonalLoop=1;jettySize=auto;html=1;exitX=0.5;exitY=1;exitDx=0;exitDy=0;entryX=0.5;entryY=0;entryDx=0;entryDy=0;strokeColor=default;align=center;verticalAlign=middle;fontFamily=Helvetica;fontSize=11;fontColor=default;labelBackgroundColor=default;startFill=0;endArrow=none;" edge="1" parent="1" source="mnLrqJY_td_YgX6tUmR0-80" target="mnLrqJY_td_YgX6tUmR0-88">
          <mxGeometry relative="1" as="geometry" />
        </mxCell>
        <mxCell id="mnLrqJY_td_YgX6tUmR0-98" style="edgeStyle=none;shape=connector;rounded=0;orthogonalLoop=1;jettySize=auto;html=1;exitX=1;exitY=0.5;exitDx=0;exitDy=0;entryX=0;entryY=0.5;entryDx=0;entryDy=0;strokeColor=default;align=center;verticalAlign=middle;fontFamily=Helvetica;fontSize=11;fontColor=default;labelBackgroundColor=default;startFill=0;endArrow=none;" edge="1" parent="1" source="mnLrqJY_td_YgX6tUmR0-80" target="mnLrqJY_td_YgX6tUmR0-85">
          <mxGeometry relative="1" as="geometry" />
        </mxCell>
        <mxCell id="mnLrqJY_td_YgX6tUmR0-80" value="评论" style="rounded=0;whiteSpace=wrap;html=1;" vertex="1" parent="1">
          <mxGeometry x="862" y="684" width="110" height="50" as="geometry" />
        </mxCell>
        <mxCell id="mnLrqJY_td_YgX6tUmR0-81" value="评论id" style="ellipse;whiteSpace=wrap;html=1;" vertex="1" parent="1">
          <mxGeometry x="785" y="601" width="90" height="60" as="geometry" />
        </mxCell>
        <mxCell id="mnLrqJY_td_YgX6tUmR0-83" value="活动id" style="ellipse;whiteSpace=wrap;html=1;" vertex="1" parent="1">
          <mxGeometry x="906" y="591" width="90" height="60" as="geometry" />
        </mxCell>
        <mxCell id="mnLrqJY_td_YgX6tUmR0-85" value="评论用户id" style="ellipse;whiteSpace=wrap;html=1;" vertex="1" parent="1">
          <mxGeometry x="1015" y="679" width="90" height="60" as="geometry" />
        </mxCell>
        <mxCell id="mnLrqJY_td_YgX6tUmR0-87" value="评论内容" style="ellipse;whiteSpace=wrap;html=1;" vertex="1" parent="1">
          <mxGeometry x="818" y="774" width="90" height="60" as="geometry" />
        </mxCell>
        <mxCell id="mnLrqJY_td_YgX6tUmR0-88" value="评论父id" style="ellipse;whiteSpace=wrap;html=1;" vertex="1" parent="1">
          <mxGeometry x="946" y="772" width="90" height="60" as="geometry" />
        </mxCell>
        <mxCell id="mnLrqJY_td_YgX6tUmR0-89" value="评论时间" style="ellipse;whiteSpace=wrap;html=1;" vertex="1" parent="1">
          <mxGeometry x="722" y="681" width="90" height="60" as="geometry" />
        </mxCell>
        <mxCell id="mnLrqJY_td_YgX6tUmR0-90" style="edgeStyle=none;shape=connector;rounded=0;orthogonalLoop=1;jettySize=auto;html=1;exitX=1;exitY=1;exitDx=0;exitDy=0;strokeColor=default;align=center;verticalAlign=middle;fontFamily=Helvetica;fontSize=11;fontColor=default;labelBackgroundColor=default;startFill=0;endArrow=none;" edge="1" parent="1" source="mnLrqJY_td_YgX6tUmR0-89" target="mnLrqJY_td_YgX6tUmR0-89">
          <mxGeometry relative="1" as="geometry" />
        </mxCell>
        <mxCell id="mnLrqJY_td_YgX6tUmR0-91" style="edgeStyle=none;shape=connector;rounded=0;orthogonalLoop=1;jettySize=auto;html=1;exitX=0.75;exitY=1;exitDx=0;exitDy=0;strokeColor=default;align=center;verticalAlign=middle;fontFamily=Helvetica;fontSize=11;fontColor=default;labelBackgroundColor=default;startFill=0;endArrow=none;" edge="1" parent="1" source="mnLrqJY_td_YgX6tUmR0-80" target="mnLrqJY_td_YgX6tUmR0-80">
          <mxGeometry relative="1" as="geometry" />
        </mxCell>
        <mxCell id="mnLrqJY_td_YgX6tUmR0-93" style="edgeStyle=none;shape=connector;rounded=0;orthogonalLoop=1;jettySize=auto;html=1;exitX=0.5;exitY=0;exitDx=0;exitDy=0;entryX=0.431;entryY=1.013;entryDx=0;entryDy=0;entryPerimeter=0;strokeColor=default;align=center;verticalAlign=middle;fontFamily=Helvetica;fontSize=11;fontColor=default;labelBackgroundColor=default;startFill=0;endArrow=none;" edge="1" parent="1" source="mnLrqJY_td_YgX6tUmR0-80" target="mnLrqJY_td_YgX6tUmR0-83">
          <mxGeometry relative="1" as="geometry" />
        </mxCell>
        <mxCell id="mnLrqJY_td_YgX6tUmR0-115" style="edgeStyle=none;shape=connector;rounded=0;orthogonalLoop=1;jettySize=auto;html=1;exitX=0;exitY=0.5;exitDx=0;exitDy=0;entryX=1;entryY=0.5;entryDx=0;entryDy=0;strokeColor=default;align=center;verticalAlign=middle;fontFamily=Helvetica;fontSize=11;fontColor=default;labelBackgroundColor=default;startFill=0;endArrow=none;" edge="1" parent="1" source="mnLrqJY_td_YgX6tUmR0-119" target="mnLrqJY_td_YgX6tUmR0-125">
          <mxGeometry relative="1" as="geometry" />
        </mxCell>
        <mxCell id="mnLrqJY_td_YgX6tUmR0-117" style="edgeStyle=none;shape=connector;rounded=0;orthogonalLoop=1;jettySize=auto;html=1;exitX=0.5;exitY=1;exitDx=0;exitDy=0;strokeColor=default;align=center;verticalAlign=middle;fontFamily=Helvetica;fontSize=11;fontColor=default;labelBackgroundColor=default;startFill=0;endArrow=none;entryX=0.5;entryY=0;entryDx=0;entryDy=0;" edge="1" parent="1" source="mnLrqJY_td_YgX6tUmR0-119" target="mnLrqJY_td_YgX6tUmR0-124">
          <mxGeometry relative="1" as="geometry">
            <mxPoint x="965" y="448" as="targetPoint" />
          </mxGeometry>
        </mxCell>
        <mxCell id="mnLrqJY_td_YgX6tUmR0-118" style="edgeStyle=none;shape=connector;rounded=0;orthogonalLoop=1;jettySize=auto;html=1;exitX=1;exitY=0.5;exitDx=0;exitDy=0;entryX=0;entryY=0.5;entryDx=0;entryDy=0;strokeColor=default;align=center;verticalAlign=middle;fontFamily=Helvetica;fontSize=11;fontColor=default;labelBackgroundColor=default;startFill=0;endArrow=none;" edge="1" parent="1" source="mnLrqJY_td_YgX6tUmR0-119" target="mnLrqJY_td_YgX6tUmR0-122">
          <mxGeometry relative="1" as="geometry" />
        </mxCell>
        <mxCell id="mnLrqJY_td_YgX6tUmR0-119" value="报名信息" style="rounded=0;whiteSpace=wrap;html=1;" vertex="1" parent="1">
          <mxGeometry x="910" y="365.22" width="110" height="50" as="geometry" />
        </mxCell>
        <mxCell id="mnLrqJY_td_YgX6tUmR0-121" value="活动id" style="ellipse;whiteSpace=wrap;html=1;" vertex="1" parent="1">
          <mxGeometry x="920" y="276" width="90" height="60" as="geometry" />
        </mxCell>
        <mxCell id="mnLrqJY_td_YgX6tUmR0-122" value="用户id" style="ellipse;whiteSpace=wrap;html=1;" vertex="1" parent="1">
          <mxGeometry x="1044" y="360.22" width="90" height="60" as="geometry" />
        </mxCell>
        <mxCell id="mnLrqJY_td_YgX6tUmR0-124" value="报名id" style="ellipse;whiteSpace=wrap;html=1;" vertex="1" parent="1">
          <mxGeometry x="920" y="453" width="90" height="60" as="geometry" />
        </mxCell>
        <mxCell id="mnLrqJY_td_YgX6tUmR0-125" value="报名时间" style="ellipse;whiteSpace=wrap;html=1;" vertex="1" parent="1">
          <mxGeometry x="790" y="360.22" width="90" height="60" as="geometry" />
        </mxCell>
        <mxCell id="mnLrqJY_td_YgX6tUmR0-126" style="edgeStyle=none;shape=connector;rounded=0;orthogonalLoop=1;jettySize=auto;html=1;exitX=1;exitY=1;exitDx=0;exitDy=0;strokeColor=default;align=center;verticalAlign=middle;fontFamily=Helvetica;fontSize=11;fontColor=default;labelBackgroundColor=default;startFill=0;endArrow=none;" edge="1" parent="1" source="mnLrqJY_td_YgX6tUmR0-125" target="mnLrqJY_td_YgX6tUmR0-125">
          <mxGeometry relative="1" as="geometry" />
        </mxCell>
        <mxCell id="mnLrqJY_td_YgX6tUmR0-127" style="edgeStyle=none;shape=connector;rounded=0;orthogonalLoop=1;jettySize=auto;html=1;exitX=0.75;exitY=1;exitDx=0;exitDy=0;strokeColor=default;align=center;verticalAlign=middle;fontFamily=Helvetica;fontSize=11;fontColor=default;labelBackgroundColor=default;startFill=0;endArrow=none;" edge="1" parent="1" source="mnLrqJY_td_YgX6tUmR0-119" target="mnLrqJY_td_YgX6tUmR0-119">
          <mxGeometry relative="1" as="geometry" />
        </mxCell>
        <mxCell id="mnLrqJY_td_YgX6tUmR0-128" style="edgeStyle=none;shape=connector;rounded=0;orthogonalLoop=1;jettySize=auto;html=1;exitX=0.5;exitY=0;exitDx=0;exitDy=0;entryX=0.5;entryY=1;entryDx=0;entryDy=0;strokeColor=default;align=center;verticalAlign=middle;fontFamily=Helvetica;fontSize=11;fontColor=default;labelBackgroundColor=default;startFill=0;endArrow=none;" edge="1" parent="1" source="mnLrqJY_td_YgX6tUmR0-119" target="mnLrqJY_td_YgX6tUmR0-121">
          <mxGeometry relative="1" as="geometry">
            <mxPoint x="966.79" y="326" as="targetPoint" />
          </mxGeometry>
        </mxCell>
        <mxCell id="mnLrqJY_td_YgX6tUmR0-129" style="edgeStyle=none;shape=connector;rounded=0;orthogonalLoop=1;jettySize=auto;html=1;exitX=0.75;exitY=0;exitDx=0;exitDy=0;strokeColor=default;align=center;verticalAlign=middle;fontFamily=Helvetica;fontSize=11;fontColor=default;labelBackgroundColor=default;startFill=0;endArrow=none;" edge="1" parent="1" source="mnLrqJY_td_YgX6tUmR0-135" target="mnLrqJY_td_YgX6tUmR0-141">
          <mxGeometry relative="1" as="geometry" />
        </mxCell>
        <mxCell id="mnLrqJY_td_YgX6tUmR0-130" style="edgeStyle=none;shape=connector;rounded=0;orthogonalLoop=1;jettySize=auto;html=1;exitX=1;exitY=0.75;exitDx=0;exitDy=0;entryX=0;entryY=0.5;entryDx=0;entryDy=0;strokeColor=default;align=center;verticalAlign=middle;fontFamily=Helvetica;fontSize=11;fontColor=default;labelBackgroundColor=default;startFill=0;endArrow=none;" edge="1" parent="1" source="mnLrqJY_td_YgX6tUmR0-135" target="mnLrqJY_td_YgX6tUmR0-144">
          <mxGeometry relative="1" as="geometry" />
        </mxCell>
        <mxCell id="mnLrqJY_td_YgX6tUmR0-131" style="edgeStyle=none;shape=connector;rounded=0;orthogonalLoop=1;jettySize=auto;html=1;exitX=0.75;exitY=1;exitDx=0;exitDy=0;strokeColor=default;align=center;verticalAlign=middle;fontFamily=Helvetica;fontSize=11;fontColor=default;labelBackgroundColor=default;startFill=0;endArrow=none;" edge="1" parent="1" source="mnLrqJY_td_YgX6tUmR0-135" target="mnLrqJY_td_YgX6tUmR0-148">
          <mxGeometry relative="1" as="geometry" />
        </mxCell>
        <mxCell id="mnLrqJY_td_YgX6tUmR0-132" style="edgeStyle=none;shape=connector;rounded=0;orthogonalLoop=1;jettySize=auto;html=1;exitX=0.25;exitY=1;exitDx=0;exitDy=0;strokeColor=default;align=center;verticalAlign=middle;fontFamily=Helvetica;fontSize=11;fontColor=default;labelBackgroundColor=default;startFill=0;endArrow=none;" edge="1" parent="1" source="mnLrqJY_td_YgX6tUmR0-135" target="mnLrqJY_td_YgX6tUmR0-140">
          <mxGeometry relative="1" as="geometry" />
        </mxCell>
        <mxCell id="mnLrqJY_td_YgX6tUmR0-133" style="edgeStyle=none;shape=connector;rounded=0;orthogonalLoop=1;jettySize=auto;html=1;exitX=0;exitY=1;exitDx=0;exitDy=0;entryX=1;entryY=0.5;entryDx=0;entryDy=0;strokeColor=default;align=center;verticalAlign=middle;fontFamily=Helvetica;fontSize=11;fontColor=default;labelBackgroundColor=default;startFill=0;endArrow=none;" edge="1" parent="1" source="mnLrqJY_td_YgX6tUmR0-135" target="mnLrqJY_td_YgX6tUmR0-145">
          <mxGeometry relative="1" as="geometry" />
        </mxCell>
        <mxCell id="mnLrqJY_td_YgX6tUmR0-134" style="edgeStyle=none;shape=connector;rounded=0;orthogonalLoop=1;jettySize=auto;html=1;exitX=0;exitY=0;exitDx=0;exitDy=0;strokeColor=default;align=center;verticalAlign=middle;fontFamily=Helvetica;fontSize=11;fontColor=default;labelBackgroundColor=default;startFill=0;endArrow=none;" edge="1" parent="1" source="mnLrqJY_td_YgX6tUmR0-135" target="mnLrqJY_td_YgX6tUmR0-136">
          <mxGeometry relative="1" as="geometry" />
        </mxCell>
        <mxCell id="mnLrqJY_td_YgX6tUmR0-135" value="用户" style="rounded=0;whiteSpace=wrap;html=1;" vertex="1" parent="1">
          <mxGeometry x="234" y="599" width="110" height="50" as="geometry" />
        </mxCell>
        <mxCell id="mnLrqJY_td_YgX6tUmR0-136" value="用户名" style="ellipse;whiteSpace=wrap;html=1;" vertex="1" parent="1">
          <mxGeometry x="88" y="479" width="90" height="60" as="geometry" />
        </mxCell>
        <mxCell id="mnLrqJY_td_YgX6tUmR0-137" style="rounded=0;orthogonalLoop=1;jettySize=auto;html=1;exitX=0.5;exitY=1;exitDx=0;exitDy=0;entryX=0.5;entryY=0;entryDx=0;entryDy=0;endArrow=none;startFill=0;" edge="1" parent="1" source="mnLrqJY_td_YgX6tUmR0-138" target="mnLrqJY_td_YgX6tUmR0-135">
          <mxGeometry relative="1" as="geometry" />
        </mxCell>
        <mxCell id="mnLrqJY_td_YgX6tUmR0-138" value="密码" style="ellipse;whiteSpace=wrap;html=1;" vertex="1" parent="1">
          <mxGeometry x="198" y="449" width="90" height="60" as="geometry" />
        </mxCell>
        <mxCell id="mnLrqJY_td_YgX6tUmR0-139" value="年龄" style="ellipse;whiteSpace=wrap;html=1;" vertex="1" parent="1">
          <mxGeometry x="423" y="689" width="90" height="60" as="geometry" />
        </mxCell>
        <mxCell id="mnLrqJY_td_YgX6tUmR0-140" value="电话号码" style="ellipse;whiteSpace=wrap;html=1;" vertex="1" parent="1">
          <mxGeometry x="78" y="699" width="90" height="60" as="geometry" />
        </mxCell>
        <mxCell id="mnLrqJY_td_YgX6tUmR0-141" value="头像url" style="ellipse;whiteSpace=wrap;html=1;" vertex="1" parent="1">
          <mxGeometry x="398" y="509" width="90" height="60" as="geometry" />
        </mxCell>
        <mxCell id="mnLrqJY_td_YgX6tUmR0-142" value="用户姓名" style="ellipse;whiteSpace=wrap;html=1;" vertex="1" parent="1">
          <mxGeometry x="308" y="459" width="90" height="60" as="geometry" />
        </mxCell>
        <mxCell id="mnLrqJY_td_YgX6tUmR0-143" value="用户id" style="ellipse;whiteSpace=wrap;html=1;" vertex="1" parent="1">
          <mxGeometry x="28" y="539" width="90" height="60" as="geometry" />
        </mxCell>
        <mxCell id="mnLrqJY_td_YgX6tUmR0-144" value="性别" style="ellipse;whiteSpace=wrap;html=1;" vertex="1" parent="1">
          <mxGeometry x="488" y="619" width="90" height="60" as="geometry" />
        </mxCell>
        <mxCell id="mnLrqJY_td_YgX6tUmR0-145" value="用户状态" style="ellipse;whiteSpace=wrap;html=1;" vertex="1" parent="1">
          <mxGeometry x="38" y="619" width="90" height="60" as="geometry" />
        </mxCell>
        <mxCell id="mnLrqJY_td_YgX6tUmR0-146" value="角色" style="ellipse;whiteSpace=wrap;html=1;" vertex="1" parent="1">
          <mxGeometry x="478" y="549" width="90" height="60" as="geometry" />
        </mxCell>
        <mxCell id="mnLrqJY_td_YgX6tUmR0-147" value="创建时间" style="ellipse;whiteSpace=wrap;html=1;" vertex="1" parent="1">
          <mxGeometry x="178" y="739" width="90" height="60" as="geometry" />
        </mxCell>
        <mxCell id="mnLrqJY_td_YgX6tUmR0-148" value="更新时间" style="ellipse;whiteSpace=wrap;html=1;" vertex="1" parent="1">
          <mxGeometry x="298" y="749" width="90" height="60" as="geometry" />
        </mxCell>
        <mxCell id="mnLrqJY_td_YgX6tUmR0-149" style="edgeStyle=none;shape=connector;rounded=0;orthogonalLoop=1;jettySize=auto;html=1;exitX=0.5;exitY=0;exitDx=0;exitDy=0;entryX=0.356;entryY=0.933;entryDx=0;entryDy=0;entryPerimeter=0;strokeColor=default;align=center;verticalAlign=middle;fontFamily=Helvetica;fontSize=11;fontColor=default;labelBackgroundColor=default;startFill=0;endArrow=none;" edge="1" parent="1" source="mnLrqJY_td_YgX6tUmR0-135" target="mnLrqJY_td_YgX6tUmR0-142">
          <mxGeometry relative="1" as="geometry" />
        </mxCell>
        <mxCell id="mnLrqJY_td_YgX6tUmR0-150" style="edgeStyle=none;shape=connector;rounded=0;orthogonalLoop=1;jettySize=auto;html=1;exitX=1;exitY=0.25;exitDx=0;exitDy=0;entryX=0.049;entryY=0.673;entryDx=0;entryDy=0;entryPerimeter=0;strokeColor=default;align=center;verticalAlign=middle;fontFamily=Helvetica;fontSize=11;fontColor=default;labelBackgroundColor=default;startFill=0;endArrow=none;" edge="1" parent="1" source="mnLrqJY_td_YgX6tUmR0-135" target="mnLrqJY_td_YgX6tUmR0-146">
          <mxGeometry relative="1" as="geometry" />
        </mxCell>
        <mxCell id="mnLrqJY_td_YgX6tUmR0-151" style="edgeStyle=none;shape=connector;rounded=0;orthogonalLoop=1;jettySize=auto;html=1;exitX=1;exitY=1;exitDx=0;exitDy=0;entryX=0.076;entryY=0.34;entryDx=0;entryDy=0;entryPerimeter=0;strokeColor=default;align=center;verticalAlign=middle;fontFamily=Helvetica;fontSize=11;fontColor=default;labelBackgroundColor=default;startFill=0;endArrow=none;" edge="1" parent="1" source="mnLrqJY_td_YgX6tUmR0-135" target="mnLrqJY_td_YgX6tUmR0-139">
          <mxGeometry relative="1" as="geometry" />
        </mxCell>
        <mxCell id="mnLrqJY_td_YgX6tUmR0-152" style="edgeStyle=none;shape=connector;rounded=0;orthogonalLoop=1;jettySize=auto;html=1;exitX=0.5;exitY=1;exitDx=0;exitDy=0;entryX=0.698;entryY=0.027;entryDx=0;entryDy=0;entryPerimeter=0;strokeColor=default;align=center;verticalAlign=middle;fontFamily=Helvetica;fontSize=11;fontColor=default;labelBackgroundColor=default;startFill=0;endArrow=none;" edge="1" parent="1" source="mnLrqJY_td_YgX6tUmR0-135" target="mnLrqJY_td_YgX6tUmR0-147">
          <mxGeometry relative="1" as="geometry" />
        </mxCell>
        <mxCell id="mnLrqJY_td_YgX6tUmR0-153" style="edgeStyle=none;shape=connector;rounded=0;orthogonalLoop=1;jettySize=auto;html=1;exitX=0;exitY=0.5;exitDx=0;exitDy=0;entryX=0.987;entryY=0.693;entryDx=0;entryDy=0;entryPerimeter=0;strokeColor=default;align=center;verticalAlign=middle;fontFamily=Helvetica;fontSize=11;fontColor=default;labelBackgroundColor=default;startFill=0;endArrow=none;" edge="1" parent="1" source="mnLrqJY_td_YgX6tUmR0-135" target="mnLrqJY_td_YgX6tUmR0-143">
          <mxGeometry relative="1" as="geometry" />
        </mxCell>
        <mxCell id="mnLrqJY_td_YgX6tUmR0-176" style="edgeStyle=none;shape=connector;rounded=0;orthogonalLoop=1;jettySize=auto;html=1;exitX=1;exitY=0.5;exitDx=0;exitDy=0;strokeColor=default;align=center;verticalAlign=middle;fontFamily=Helvetica;fontSize=11;fontColor=default;labelBackgroundColor=default;startFill=0;endArrow=none;" edge="1" parent="1" source="mnLrqJY_td_YgX6tUmR0-157" target="mnLrqJY_td_YgX6tUmR0-175">
          <mxGeometry relative="1" as="geometry" />
        </mxCell>
        <mxCell id="mnLrqJY_td_YgX6tUmR0-178" value="1" style="edgeLabel;html=1;align=center;verticalAlign=middle;resizable=0;points=[];fontFamily=Helvetica;fontSize=11;fontColor=default;labelBackgroundColor=default;" vertex="1" connectable="0" parent="mnLrqJY_td_YgX6tUmR0-176">
          <mxGeometry x="-0.1121" y="1" relative="1" as="geometry">
            <mxPoint x="-1" as="offset" />
          </mxGeometry>
        </mxCell>
        <mxCell id="mnLrqJY_td_YgX6tUmR0-157" value="活动" style="rounded=0;whiteSpace=wrap;html=1;" vertex="1" parent="1">
          <mxGeometry x="473" y="1062" width="110" height="50" as="geometry" />
        </mxCell>
        <mxCell id="mnLrqJY_td_YgX6tUmR0-181" value="n" style="edgeStyle=none;shape=connector;rounded=0;orthogonalLoop=1;jettySize=auto;html=1;exitX=1;exitY=0.5;exitDx=0;exitDy=0;entryX=0;entryY=0.5;entryDx=0;entryDy=0;strokeColor=default;align=center;verticalAlign=middle;fontFamily=Helvetica;fontSize=11;fontColor=default;labelBackgroundColor=default;startFill=0;endArrow=none;" edge="1" parent="1" source="mnLrqJY_td_YgX6tUmR0-159" target="mnLrqJY_td_YgX6tUmR0-164">
          <mxGeometry relative="1" as="geometry" />
        </mxCell>
        <mxCell id="mnLrqJY_td_YgX6tUmR0-186" value="1" style="edgeStyle=none;shape=connector;rounded=0;orthogonalLoop=1;jettySize=auto;html=1;strokeColor=default;align=center;verticalAlign=middle;fontFamily=Helvetica;fontSize=11;fontColor=default;labelBackgroundColor=default;startFill=0;endArrow=none;" edge="1" parent="1" source="mnLrqJY_td_YgX6tUmR0-159" target="mnLrqJY_td_YgX6tUmR0-185">
          <mxGeometry relative="1" as="geometry" />
        </mxCell>
        <mxCell id="mnLrqJY_td_YgX6tUmR0-191" value="1" style="edgeStyle=none;shape=connector;rounded=0;orthogonalLoop=1;jettySize=auto;html=1;exitX=0;exitY=0.5;exitDx=0;exitDy=0;entryX=0;entryY=0.5;entryDx=0;entryDy=0;strokeColor=default;align=center;verticalAlign=middle;fontFamily=Helvetica;fontSize=11;fontColor=default;labelBackgroundColor=default;startFill=0;endArrow=none;" edge="1" parent="1" source="mnLrqJY_td_YgX6tUmR0-159" target="mnLrqJY_td_YgX6tUmR0-190">
          <mxGeometry relative="1" as="geometry" />
        </mxCell>
        <mxCell id="mnLrqJY_td_YgX6tUmR0-159" value="报名信息" style="rounded=0;whiteSpace=wrap;html=1;" vertex="1" parent="1">
          <mxGeometry x="198" y="1065.5" width="110" height="43" as="geometry" />
        </mxCell>
        <mxCell id="mnLrqJY_td_YgX6tUmR0-169" value="1" style="edgeStyle=none;shape=connector;rounded=0;orthogonalLoop=1;jettySize=auto;html=1;exitX=0.5;exitY=0;exitDx=0;exitDy=0;entryX=0.5;entryY=1;entryDx=0;entryDy=0;strokeColor=default;align=center;verticalAlign=middle;fontFamily=Helvetica;fontSize=11;fontColor=default;labelBackgroundColor=default;startFill=0;endArrow=none;" edge="1" parent="1" source="mnLrqJY_td_YgX6tUmR0-161" target="mnLrqJY_td_YgX6tUmR0-168">
          <mxGeometry relative="1" as="geometry" />
        </mxCell>
        <mxCell id="mnLrqJY_td_YgX6tUmR0-173" value="1" style="edgeStyle=none;shape=connector;rounded=0;orthogonalLoop=1;jettySize=auto;html=1;exitX=1;exitY=0.5;exitDx=0;exitDy=0;strokeColor=default;align=center;verticalAlign=middle;fontFamily=Helvetica;fontSize=11;fontColor=default;labelBackgroundColor=default;startFill=0;endArrow=none;entryX=0;entryY=0.5;entryDx=0;entryDy=0;" edge="1" parent="1" source="mnLrqJY_td_YgX6tUmR0-161" target="mnLrqJY_td_YgX6tUmR0-172">
          <mxGeometry relative="1" as="geometry">
            <mxPoint x="596.13330078125" y="1361.3333333333335" as="targetPoint" />
          </mxGeometry>
        </mxCell>
        <mxCell id="mnLrqJY_td_YgX6tUmR0-161" value="用户" style="rounded=0;whiteSpace=wrap;html=1;" vertex="1" parent="1">
          <mxGeometry x="472" y="1321" width="110" height="50" as="geometry" />
        </mxCell>
        <mxCell id="mnLrqJY_td_YgX6tUmR0-162" value="评论" style="rounded=0;whiteSpace=wrap;html=1;" vertex="1" parent="1">
          <mxGeometry x="759" y="1321" width="110" height="50" as="geometry" />
        </mxCell>
        <mxCell id="mnLrqJY_td_YgX6tUmR0-182" value="1" style="edgeStyle=none;shape=connector;rounded=0;orthogonalLoop=1;jettySize=auto;html=1;exitX=1;exitY=0.5;exitDx=0;exitDy=0;entryX=0;entryY=0.5;entryDx=0;entryDy=0;strokeColor=default;align=center;verticalAlign=middle;fontFamily=Helvetica;fontSize=11;fontColor=default;labelBackgroundColor=default;startFill=0;endArrow=none;" edge="1" parent="1" source="mnLrqJY_td_YgX6tUmR0-164" target="mnLrqJY_td_YgX6tUmR0-157">
          <mxGeometry relative="1" as="geometry" />
        </mxCell>
        <mxCell id="mnLrqJY_td_YgX6tUmR0-164" value="包含" style="rhombus;whiteSpace=wrap;html=1;fontFamily=Helvetica;fontSize=11;fontColor=default;labelBackgroundColor=default;" vertex="1" parent="1">
          <mxGeometry x="353" y="1047" width="80" height="80" as="geometry" />
        </mxCell>
        <mxCell id="mnLrqJY_td_YgX6tUmR0-170" value="n" style="edgeStyle=none;shape=connector;rounded=0;orthogonalLoop=1;jettySize=auto;html=1;exitX=0.5;exitY=0;exitDx=0;exitDy=0;entryX=0.5;entryY=1;entryDx=0;entryDy=0;strokeColor=default;align=center;verticalAlign=middle;fontFamily=Helvetica;fontSize=11;fontColor=default;labelBackgroundColor=default;startFill=0;endArrow=none;" edge="1" parent="1" source="mnLrqJY_td_YgX6tUmR0-168" target="mnLrqJY_td_YgX6tUmR0-157">
          <mxGeometry relative="1" as="geometry" />
        </mxCell>
        <mxCell id="mnLrqJY_td_YgX6tUmR0-168" value="创建" style="rhombus;whiteSpace=wrap;html=1;fontFamily=Helvetica;fontSize=11;fontColor=default;labelBackgroundColor=default;" vertex="1" parent="1">
          <mxGeometry x="406" y="1173" width="80" height="80" as="geometry" />
        </mxCell>
        <mxCell id="mnLrqJY_td_YgX6tUmR0-174" value="n" style="edgeStyle=none;shape=connector;rounded=0;orthogonalLoop=1;jettySize=auto;html=1;exitX=1;exitY=0.5;exitDx=0;exitDy=0;entryX=0;entryY=0.5;entryDx=0;entryDy=0;strokeColor=default;align=center;verticalAlign=middle;fontFamily=Helvetica;fontSize=11;fontColor=default;labelBackgroundColor=default;startFill=0;endArrow=none;" edge="1" parent="1" source="mnLrqJY_td_YgX6tUmR0-172" target="mnLrqJY_td_YgX6tUmR0-162">
          <mxGeometry relative="1" as="geometry" />
        </mxCell>
        <mxCell id="mnLrqJY_td_YgX6tUmR0-172" value="对应" style="rhombus;whiteSpace=wrap;html=1;fontFamily=Helvetica;fontSize=11;fontColor=default;labelBackgroundColor=default;" vertex="1" parent="1">
          <mxGeometry x="623" y="1306" width="80" height="80" as="geometry" />
        </mxCell>
        <mxCell id="mnLrqJY_td_YgX6tUmR0-177" value="n" style="edgeStyle=none;shape=connector;rounded=0;orthogonalLoop=1;jettySize=auto;html=1;exitX=0.5;exitY=1;exitDx=0;exitDy=0;entryX=0.5;entryY=0;entryDx=0;entryDy=0;strokeColor=default;align=center;verticalAlign=middle;fontFamily=Helvetica;fontSize=11;fontColor=default;labelBackgroundColor=default;startFill=0;endArrow=none;" edge="1" parent="1" source="mnLrqJY_td_YgX6tUmR0-175" target="mnLrqJY_td_YgX6tUmR0-162">
          <mxGeometry relative="1" as="geometry" />
        </mxCell>
        <mxCell id="mnLrqJY_td_YgX6tUmR0-175" value="包含" style="rhombus;whiteSpace=wrap;html=1;fontFamily=Helvetica;fontSize=11;fontColor=default;labelBackgroundColor=default;" vertex="1" parent="1">
          <mxGeometry x="771" y="1047" width="80" height="80" as="geometry" />
        </mxCell>
        <mxCell id="mnLrqJY_td_YgX6tUmR0-183" style="edgeStyle=none;shape=connector;rounded=0;orthogonalLoop=1;jettySize=auto;html=1;exitX=0.75;exitY=1;exitDx=0;exitDy=0;strokeColor=default;align=center;verticalAlign=middle;fontFamily=Helvetica;fontSize=11;fontColor=default;labelBackgroundColor=default;startFill=0;endArrow=none;" edge="1" parent="1" source="mnLrqJY_td_YgX6tUmR0-159" target="mnLrqJY_td_YgX6tUmR0-159">
          <mxGeometry relative="1" as="geometry" />
        </mxCell>
        <mxCell id="mnLrqJY_td_YgX6tUmR0-187" value="1" style="edgeStyle=none;shape=connector;rounded=0;orthogonalLoop=1;jettySize=auto;html=1;exitX=1;exitY=1;exitDx=0;exitDy=0;strokeColor=default;align=center;verticalAlign=middle;fontFamily=Helvetica;fontSize=11;fontColor=default;labelBackgroundColor=default;startFill=0;endArrow=none;" edge="1" parent="1" source="mnLrqJY_td_YgX6tUmR0-185" target="mnLrqJY_td_YgX6tUmR0-161">
          <mxGeometry relative="1" as="geometry" />
        </mxCell>
        <mxCell id="mnLrqJY_td_YgX6tUmR0-185" value="对应" style="rhombus;whiteSpace=wrap;html=1;fontFamily=Helvetica;fontSize=11;fontColor=default;labelBackgroundColor=default;" vertex="1" parent="1">
          <mxGeometry x="210" y="1284" width="80" height="80" as="geometry" />
        </mxCell>
        <mxCell id="mnLrqJY_td_YgX6tUmR0-188" style="edgeStyle=none;shape=connector;rounded=0;orthogonalLoop=1;jettySize=auto;html=1;exitX=1;exitY=1;exitDx=0;exitDy=0;strokeColor=default;align=center;verticalAlign=middle;fontFamily=Helvetica;fontSize=11;fontColor=default;labelBackgroundColor=default;startFill=0;endArrow=none;" edge="1" parent="1" source="mnLrqJY_td_YgX6tUmR0-185" target="mnLrqJY_td_YgX6tUmR0-185">
          <mxGeometry relative="1" as="geometry" />
        </mxCell>
        <mxCell id="mnLrqJY_td_YgX6tUmR0-190" value="依赖" style="rhombus;whiteSpace=wrap;html=1;fontFamily=Helvetica;fontSize=11;fontColor=default;labelBackgroundColor=default;" vertex="1" parent="1">
          <mxGeometry x="198" y="935" width="80" height="80" as="geometry" />
        </mxCell>
        <mxCell id="mnLrqJY_td_YgX6tUmR0-192" value="1" style="edgeStyle=none;shape=connector;rounded=0;orthogonalLoop=1;jettySize=auto;html=1;exitX=0.5;exitY=1;exitDx=0;exitDy=0;strokeColor=default;align=center;verticalAlign=middle;fontFamily=Helvetica;fontSize=11;fontColor=default;labelBackgroundColor=default;startFill=0;endArrow=none;" edge="1" parent="1" source="mnLrqJY_td_YgX6tUmR0-190">
          <mxGeometry relative="1" as="geometry">
            <mxPoint x="236" y="1067" as="targetPoint" />
          </mxGeometry>
        </mxCell>
        <mxCell id="mnLrqJY_td_YgX6tUmR0-194" style="edgeStyle=none;shape=connector;rounded=0;orthogonalLoop=1;jettySize=auto;html=1;exitX=0.5;exitY=1;exitDx=0;exitDy=0;entryX=0.5;entryY=0;entryDx=0;entryDy=0;strokeColor=default;align=center;verticalAlign=middle;fontFamily=Helvetica;fontSize=11;fontColor=default;labelBackgroundColor=default;startFill=0;endArrow=none;" edge="1" parent="1" source="mnLrqJY_td_YgX6tUmR0-193" target="mnLrqJY_td_YgX6tUmR0-161">
          <mxGeometry relative="1" as="geometry" />
        </mxCell>
        <mxCell id="mnLrqJY_td_YgX6tUmR0-196" value="m" style="edgeLabel;html=1;align=center;verticalAlign=middle;resizable=0;points=[];fontFamily=Helvetica;fontSize=11;fontColor=default;labelBackgroundColor=default;" vertex="1" connectable="0" parent="mnLrqJY_td_YgX6tUmR0-194">
          <mxGeometry x="0.0304" y="-1" relative="1" as="geometry">
            <mxPoint as="offset" />
          </mxGeometry>
        </mxCell>
        <mxCell id="mnLrqJY_td_YgX6tUmR0-195" value="n" style="edgeStyle=none;shape=connector;rounded=0;orthogonalLoop=1;jettySize=auto;html=1;exitX=0.5;exitY=0;exitDx=0;exitDy=0;strokeColor=default;align=center;verticalAlign=middle;fontFamily=Helvetica;fontSize=11;fontColor=default;labelBackgroundColor=default;startFill=0;endArrow=none;" edge="1" parent="1" source="mnLrqJY_td_YgX6tUmR0-193">
          <mxGeometry relative="1" as="geometry">
            <mxPoint x="527.13330078125" y="1112.0000406901042" as="targetPoint" />
          </mxGeometry>
        </mxCell>
        <mxCell id="mnLrqJY_td_YgX6tUmR0-193" value="报名" style="rhombus;whiteSpace=wrap;html=1;fontFamily=Helvetica;fontSize=11;fontColor=default;labelBackgroundColor=default;" vertex="1" parent="1">
          <mxGeometry x="555" y="1173" width="80" height="80" as="geometry" />
        </mxCell>
      </root>
    </mxGraphModel>
  </diagram>
</mxfile>
